<?xml version="1.0" standalone="no"?>
<!DOCTYPE svg PUBLIC "-//W3C//DTD SVG 20010904//EN"
 "http://www.w3.org/TR/2001/REC-SVG-20010904/DTD/svg10.dtd">
<svg version="1.0" xmlns="http://www.w3.org/2000/svg"
 width="338.000000pt" height="338.000000pt" viewBox="0 0 338.000000 338.000000"
 preserveAspectRatio="xMidYMid meet">
<metadata>
Created by potrace 1.11, written by Peter Selinger 2001-2013
</metadata>
<g transform="translate(0.000000,338.000000) scale(0.100000,-0.100000)"
fill="#000000" stroke="none">
<path d="M2142 3268 c65 -63 114 -132 144 -207 23 -56 19 -81 -12 -81 -8 0
-23 -9 -34 -20 -55 -55 18 -236 115 -285 33 -16 47 -8 87 48 24 33 36 149 15
142 -6 -3 -27 4 -44 15 -32 19 -38 36 -33 83 1 12 -9 22 -29 30 -23 9 -34 23
-50 66 -11 31 -33 76 -49 101 -39 60 -112 141 -122 135 -4 -3 -10 2 -14 10 -3
8 -11 15 -18 15 -6 0 13 -24 44 -52z"/>
<path d="M1259 3266 c-70 -54 -175 -176 -152 -176 4 0 3 -4 -3 -8 -6 -4 -19
-22 -28 -39 -10 -21 -24 -33 -37 -33 -21 0 -61 -35 -91 -79 -14 -20 -20 -22
-32 -12 -21 18 -30 -18 -21 -96 5 -50 13 -71 34 -95 l26 -30 34 82 c18 45 53
111 78 147 40 59 43 66 27 77 -15 12 -15 15 0 44 9 18 16 34 16 37 0 3 11 18
25 33 14 15 25 30 25 34 0 12 93 96 128 115 17 10 32 21 32 25 0 15 -18 8 -61
-26z"/>
<path d="M1567 3240 c-58 -10 -69 -18 -92 -69 -24 -55 -16 -71 37 -70 33 0 38
2 23 9 -12 5 -14 9 -6 9 8 1 38 12 67 26 29 14 64 26 76 27 15 1 34 17 51 40
l27 38 -68 -1 c-37 -1 -89 -5 -115 -9z"/>
<path d="M1767 3079 c-67 -16 -121 -51 -194 -127 l-73 -74 -42 17 c-60 25
-171 23 -230 -2 -94 -42 -148 -131 -148 -244 0 -92 45 -194 76 -168 9 8 11 5
7 -10 -3 -13 -1 -21 6 -21 7 0 9 -4 6 -10 -9 -15 71 -67 126 -80 89 -21 152
-10 245 45 30 18 31 18 75 -12 123 -85 292 -84 416 0 148 102 204 307 128 474
-48 108 -156 189 -285 213 -60 11 -61 11 -113 -1z m158 -136 c95 -32 175 -143
175 -243 0 -47 -29 -124 -60 -163 -105 -125 -284 -129 -393 -7 -92 102 -89
249 6 348 73 76 171 100 272 65z m-331 -115 c-10 -19 -19 -66 -22 -110 -4 -69
-2 -84 22 -132 15 -30 44 -70 66 -90 49 -44 42 -47 -11 -6 -86 69 -120 218
-72 323 12 26 24 47 28 47 3 0 -2 -15 -11 -32z m-140 -62 c93 -39 103 -160 20
-238 -113 -105 -294 -25 -294 130 0 46 29 88 74 108 41 17 158 18 200 0z"/>
<path d="M1828 2793 c7 -3 16 -2 19 1 4 3 -2 6 -13 5 -11 0 -14 -3 -6 -6z"/>
<path d="M1740 2780 c-9 -6 -10 -10 -3 -10 6 0 15 5 18 10 8 12 4 12 -15 0z"/>
<path d="M1790 2737 c-28 -14 -39 -59 -19 -83 14 -17 60 -19 77 -2 17 17 15
41 -2 35 -19 -7 -28 3 -16 18 6 8 5 17 -3 28 -10 14 -16 15 -37 4z"/>
<path d="M1702 2670 c0 -14 2 -19 5 -12 2 6 2 18 0 25 -3 6 -5 1 -5 -13z"/>
<path d="M1911 2664 c0 -11 3 -14 6 -6 3 7 2 16 -1 19 -3 4 -6 -2 -5 -13z"/>
<path d="M1730 2616 c0 -2 8 -10 18 -17 15 -13 16 -12 3 4 -13 16 -21 21 -21
13z"/>
<path d="M1845 2595 c-16 -8 -23 -14 -14 -15 8 0 24 7 35 15 23 18 18 18 -21
0z"/>
<path d="M1358 2743 c7 -3 16 -2 19 1 4 3 -2 6 -13 5 -11 0 -14 -3 -6 -6z"/>
<path d="M1319 2723 c-13 -16 -12 -17 4 -4 16 13 21 21 13 21 -2 0 -10 -8 -17
-17z"/>
<path d="M1349 2694 c-9 -11 -10 -20 -2 -32 12 -20 54 -23 61 -4 2 6 -3 12
-11 12 -10 0 -13 7 -10 20 7 25 -18 27 -38 4z"/>
<path d="M1301 2674 c0 -11 3 -14 6 -6 3 7 2 16 -1 19 -3 4 -6 -2 -5 -13z"/>
<path d="M1310 2636 c0 -2 8 -10 18 -17 15 -13 16 -12 3 4 -13 16 -21 21 -21
13z"/>
<path d="M2259 2675 c-2 -17 3 -43 13 -60 38 -65 13 -145 -63 -204 -48 -38
-33 -36 29 3 74 47 91 142 44 247 l-19 44 -4 -30z"/>
<path d="M2404 2575 c2 -22 -2 -74 -8 -115 l-11 -75 -62 -30 c-38 -18 -61 -35
-58 -42 2 -7 -1 -13 -8 -13 -8 0 -8 -3 2 -9 14 -9 -30 -22 -149 -42 -104 -17
-570 -24 -705 -9 -79 9 -113 16 -103 22 10 7 10 11 0 15 -6 2 -10 8 -7 13 3 5
-21 14 -52 20 -32 6 -92 21 -133 32 -41 11 -96 26 -123 33 l-47 13 19 -27 c11
-16 21 -48 23 -77 3 -46 5 -50 46 -72 188 -104 963 -122 1254 -31 37 12 73 28
80 36 6 8 11 32 10 55 -2 32 4 47 29 76 31 35 31 36 25 116 -4 45 -11 97 -16
116 l-10 35 4 -40z"/>
<path d="M2405 2219 c-1 -27 0 -27 17 -12 19 17 25 6 8 -15 -5 -7 -3 -6 6 2
18 15 13 31 -14 45 -14 8 -17 4 -17 -20z"/>
<path d="M950 2138 c8 -7 16 -26 18 -41 2 -15 10 -40 18 -55 7 -15 14 -34 14
-44 0 -9 5 -18 10 -20 6 -2 14 -30 19 -63 8 -51 9 -41 7 70 l-1 129 -50 18
c-29 11 -44 13 -35 6z"/>
<path d="M1053 2055 c0 -33 3 -94 7 -135 l7 -75 0 70 c0 39 -3 99 -7 135 l-7
65 0 -60z"/>
<path d="M833 2062 c-43 -16 -56 -32 -28 -32 8 0 24 -9 36 -21 l21 -21 -7 22
c-5 17 -2 23 14 27 12 3 21 13 21 24 0 22 -1 22 -57 1z"/>
<path d="M740 2020 c-12 -7 -10 -11 10 -18 14 -6 26 -6 28 -1 2 5 11 9 20 9
15 0 15 2 2 10 -19 12 -41 12 -60 0z"/>
<path d="M2294 1964 c-41 -15 -109 -74 -85 -74 7 0 9 -5 6 -10 -4 -6 -10 -8
-15 -5 -8 5 -21 -29 -34 -88 -16 -73 47 -166 126 -188 55 -14 108 1 142 41 13
17 29 30 33 30 5 0 9 23 8 51 0 44 4 54 25 68 13 9 21 11 17 5 -4 -7 2 -14 14
-17 12 -3 18 -10 14 -16 -3 -6 9 -1 28 12 38 24 33 33 -26 43 -21 3 -40 11
-42 17 -2 7 -6 25 -9 40 -4 15 -21 44 -39 63 -39 41 -99 52 -163 28z m23 -101
c-3 -3 -11 -2 -17 2 -9 6 -9 10 1 16 14 8 27 -7 16 -18z m63 -103 c0 -28 -1
-29 -25 -18 -28 13 -30 19 -13 36 21 21 38 13 38 -18z m86 14 c-3 -9 -6 -31
-6 -50 0 -31 -2 -34 -19 -24 -14 7 -21 6 -24 -3 -2 -6 -10 7 -16 31 -15 53 -9
62 36 62 28 0 34 -3 29 -16z"/>
<path d="M661 1966 c2 -2 18 -6 34 -10 22 -5 26 -4 15 4 -14 9 -59 15 -49 6z"/>
<path d="M613 1893 c9 -2 25 -2 35 0 9 3 1 5 -18 5 -19 0 -27 -2 -17 -5z"/>
<path d="M574 1834 c-19 -46 -15 -49 16 -16 14 14 19 22 13 18 -7 -4 -13 -3
-13 3 0 5 8 15 18 20 16 10 16 10 -1 11 -11 0 -24 -13 -33 -36z"/>
<path d="M1834 1761 c1 -96 4 -116 18 -125 14 -8 21 -7 35 8 15 16 15 18 2 13
-9 -3 -16 0 -16 6 0 7 -7 46 -16 87 -9 41 -18 86 -20 100 -3 14 -4 -26 -3 -89z"/>
<path d="M715 1840 c10 -11 20 -20 23 -20 3 0 -3 9 -13 20 -10 11 -20 20 -23
20 -3 0 3 -9 13 -20z"/>
<path d="M1041 1824 c0 -11 3 -14 6 -6 3 7 2 16 -1 19 -3 4 -6 -2 -5 -13z"/>
<path d="M1073 1800 c0 -25 2 -35 4 -22 2 12 2 32 0 45 -2 12 -4 2 -4 -23z"/>
<path d="M560 1769 c0 -5 5 -7 10 -4 6 3 10 8 10 11 0 2 -4 4 -10 4 -5 0 -10
-5 -10 -11z"/>
<path d="M2592 1771 c-11 -7 -11 -9 0 -14 9 -3 15 1 15 9 0 8 -1 14 -1 14 -1
0 -7 -4 -14 -9z"/>
<path d="M2643 1758 c-13 -6 -23 -15 -23 -19 0 -6 55 15 69 28 10 7 -26 1 -46
-9z"/>
<path d="M1082 1715 c0 -16 2 -22 5 -12 2 9 2 23 0 30 -3 6 -5 -1 -5 -18z"/>
<path d="M2526 1707 c-6 -30 -11 -37 -24 -33 -13 5 -12 2 3 -9 19 -15 20 -14
28 21 4 21 6 42 4 48 -2 6 -7 -6 -11 -27z"/>
<path d="M2696 1692 c-2 -4 13 -6 35 -4 21 2 39 6 39 8 0 7 -69 4 -74 -4z"/>
<path d="M2767 1674 c-4 -4 -7 -12 -7 -18 0 -6 5 -4 11 4 8 12 9 10 4 -7 -5
-18 -2 -23 12 -24 16 0 16 -1 -2 -9 -19 -8 -19 -9 3 -9 12 -1 22 5 22 12 -1
18 -35 59 -43 51z"/>
<path d="M1091 1654 c0 -11 3 -14 6 -6 3 7 2 16 -1 19 -3 4 -6 -2 -5 -13z"/>
<path d="M2575 1649 c-4 -6 -5 -12 -2 -15 2 -3 7 2 10 11 7 17 1 20 -8 4z"/>
<path d="M2620 1615 c-7 -9 -11 -17 -9 -20 3 -2 10 5 17 15 14 24 10 26 -8 5z"/>
<path d="M1101 1604 c0 -11 3 -14 6 -6 3 7 2 16 -1 19 -3 4 -6 -2 -5 -13z"/>
<path d="M2770 1584 c0 -4 16 -25 36 -47 l37 -40 -7 39 c-5 21 -10 42 -12 46
-6 10 -54 11 -54 2z"/>
<path d="M1144 1275 c16 -13 46 -30 67 -38 l39 -15 -36 33 c-20 19 -50 36 -67
39 l-32 5 29 -24z"/>
<path d="M2819 1283 c-13 -16 -12 -17 4 -4 16 13 21 21 13 21 -2 0 -10 -8 -17
-17z"/>
<path d="M1210 1283 c0 -6 8 -17 18 -24 16 -13 16 -13 2 6 -8 11 -16 22 -17
24 -2 2 -3 0 -3 -6z"/>
<path d="M1842 1185 c0 -16 2 -22 5 -12 2 9 2 23 0 30 -3 6 -5 -1 -5 -18z"/>
<path d="M1942 1172 c-40 -9 -71 -21 -69 -27 2 -5 13 -9 25 -7 14 2 27 -6 39
-24 l17 -27 7 24 c5 22 7 20 19 -18 13 -44 27 -51 60 -33 16 9 18 15 10 36 -6
14 -10 35 -10 46 0 18 2 19 17 7 15 -12 16 -12 10 4 -4 10 -7 23 -7 28 0 12
-29 10 -118 -9z m98 -83 c0 -9 -7 -20 -16 -23 -21 -8 -20 -9 -29 33 -5 23 -4
31 4 27 6 -4 11 -1 11 6 1 20 30 -23 30 -43z"/>
<path d="M1352 1138 c-12 -46 0 -76 19 -48 8 12 9 10 4 -8 -5 -17 -1 -24 17
-31 21 -8 21 -8 -9 -13 -18 -2 -30 -1 -27 4 3 4 -2 5 -10 2 -9 -3 -16 -10 -16
-14 0 -11 98 -43 113 -37 7 3 19 25 26 48 7 24 21 58 31 76 l19 32 -57 11
c-31 7 -66 14 -78 17 -18 4 -23 -2 -32 -39z m95 -104 c-3 -3 -12 -4 -19 -1 -8
3 -5 6 6 6 11 1 17 -2 13 -5z"/>
<path d="M1785 1139 c-12 -19 5 -23 22 -6 16 16 16 17 1 17 -9 0 -20 -5 -23
-11z"/>
<path d="M1737 1132 c7 -4 15 -27 19 -50 6 -41 6 -42 -22 -44 -16 0 -35 -1
-41 -1 -7 1 -13 -4 -13 -9 0 -6 13 -8 31 -4 17 3 38 6 45 6 10 0 14 15 14 55
0 50 -2 55 -22 55 -15 0 -19 -3 -11 -8z"/>
<path d="M1672 1105 c0 -16 2 -22 5 -12 2 9 2 23 0 30 -3 6 -5 -1 -5 -18z"/>
<path d="M1970 1023 c0 -15 38 -17 59 -4 9 6 2 10 -23 13 -25 3 -36 0 -36 -9z"/>
<path d="M1784 1004 c-7 -3 -45 -10 -85 -17 -94 -16 -104 -37 -17 -37 35 0 80
3 101 6 31 6 37 11 37 30 0 23 -11 28 -36 18z"/>
</g>
</svg>
